<?xml version="1.0" encoding="utf-8"?><svg viewBox="0 0 800 800" xmlns="http://www.w3.org/2000/svg" xmlns:xlink="http://www.w3.org/1999/xlink"><style>:root>svg{display:none}:root>svg:target{display:block}</style><svg viewBox="0 0 32 32" id="social-google-svgrepo-com" xmlns="http://www.w3.org/2000/svg"><path d="M22.094 11.25c-2.188-2.344-4-2.719-5.75-2.75h-.063c-3.938 0-7.656 3.25-7.656 7.75 0 4.719 4.25 7.469 7.625 7.469h.031c1.875 0 4.156-.344 6.156-3.219h-7.688v-7.969l16.344.063c.156.813.438 2.844.438 3.906 0 9.031-6.063 15.469-15.406 15.469C7.25 31.969.031 24.906.031 16.094S7.25.25 16.125.25c4.344 0 9 1.719 11.938 5.625zm-5.844 2.906v4.813h8.219c-.375 2.031-2.531 6.094-8.219 6.094-4.969 0-8.969-4.063-8.969-8.906 0-4.875 4.094-8.969 8.969-8.969 2.844 0 4.75 1.25 5.781 2.25l3.938-3.719c-2.5-2.344-5.781-3.75-9.719-3.75-8 0-14.5 6.281-14.5 14.188 0 7.844 6.5 14.156 14.5 14.156 8.438 0 13.906-5.781 13.906-13.813 0-.906-.063-1.625-.188-2.344H16.249z"/></svg><svg viewBox="0 0 24 24" id="social-twitter-svgrepo-com" xmlns="http://www.w3.org/2000/svg"><path fill="none" d="M0 0h24v24H0z"/><path d="M5 3h14a2 2 0 0 1 2 2v14a2 2 0 0 1-2 2H5a2 2 0 0 1-2-2V5a2 2 0 0 1 2-2m12.71 6.33A4.77 4.77 0 0 0 19 7.92a4.41 4.41 0 0 1-1.44.41 2.92 2.92 0 0 0 1.12-1.47A5.62 5.62 0 0 1 17 7.5a2.72 2.72 0 0 0-4.63 2.5 7.65 7.65 0 0 1-5.52-2.84 2.87 2.87 0 0 0 .79 3.58 2.94 2.94 0 0 1-1.14-.33 2.68 2.68 0 0 0 2.08 2.68 3.35 3.35 0 0 1-1.14 0A2.67 2.67 0 0 0 9.9 15 5.38 5.38 0 0 1 6 16.08a7 7 0 0 0 4.28 1.23c4.41-.2 7.36-3.31 7.43-7.98Z"/></svg><svg viewBox="0 0 32 32" id="social-vkontakte-svgrepo-com" xmlns="http://www.w3.org/2000/svg"><path d="M.094 7.75c0-1.188.813-1.656 1.813-1.719l4.656.031c.281 0 .531.188.625.469 1.063 3.438 2.375 5.563 3.938 7.969.094.188.25.281.406.281.125 0 .25-.063.344-.219l.094-.344.031-5.406c0-.781-.375-.906-1.25-1.031a.7.7 0 0 1-.563-.688c0-.063 0-.125.031-.188.438-1.344 1.813-2.031 3.75-2.031l1.75-.031c1.438 0 2.75.625 2.75 2.469v7.094c.125.094.25.156.406.156.25 0 .563-.156.813-.563 1.625-2.281 3.469-5 3.719-6.438 0-.063.031-.094.063-.156.344-.688 1.219-1.156 1.594-1.281a.627.627 0 0 1 .281-.063h4.844l.313.031c.469 0 .813.313.969.594.281.438.219.906.25 1.094v.219c-.469 2.844-3.719 6.031-5.094 8.094-.188.25-.281.469-.281.688 0 .188.094.375.25.563l4.563 5.75c.25.344.375.75.375 1.094 0 1.031-.969 1.625-1.906 1.719l-.531.031h-4.75c-.094 0-.156.031-.25.031-.531 0-.969-.281-1.281-.594-1-1.219-1.969-2.469-2.938-3.688-.188-.25-.25-.281-.438-.406-.219.906-.406 1.844-.625 2.781l-.094.531c-.156.563-.563 1.156-1.313 1.313l-.438.031h-3.063c-5.406 0-10.25-7.688-13.656-17.281a2.747 2.747 0 0 1-.156-.906zm18.781 8.094c-.813 0-1.719-.469-1.719-1.344V7.312c0-.844-.375-1.156-1.406-1.156l-1.781.063c-1 0-1.563.156-2.031.469.719.344 1.375.813 1.375 2.125v5.5c-.094 1.094-1 1.813-1.875 1.813-.594 0-1.125-.344-1.438-.906-1.406-2.125-2.594-4.125-3.625-7l-.281-.813-4.156-.031c-.563 0-.5.031-.5.313 0 .188.031.438.063.594l.656 1.75c3.406 8.813 7.688 14.594 11.75 14.594h3.125c.438 0 .406-.531.5-.844l.594-2.75c.125-.281.219-.531.438-.75.25-.25.531-.344.813-.344.594 0 1.156.469 1.531.906l2.656 3.375c.219.344.406.406.531.406h5.156c.5 0 .938-.156.938-.469a.6.6 0 0 0-.094-.313l-4.531-5.656c-.375-.469-.531-.938-.531-1.406 0-.5.188-1 .5-1.438 1.313-1.969 4.125-4.781 4.781-7.094l.094-.406c-.031-.156-.031-.281-.063-.438h-4.906a1.702 1.702 0 0 0-.75.563l-.188.594c-.719 2-2.688 4.75-4.094 6.656-.469.438-1 .625-1.531.625z"/></svg><svg viewBox="0 0 32 32" id="social-youtube-svgrepo-com" xmlns="http://www.w3.org/2000/svg"><path d="M29.398 5.928c-.867-.624-3.283-1.453-13.406-1.453-10.848 0-12.458.952-12.975 1.264C.268 7.391.007 14.702-.017 16.184c.033 1.958.349 8.473 3.032 10.084.515.311 2.116 1.257 12.976 1.257 10.13 0 12.543-.825 13.406-1.447 2.343-1.686 2.612-7.49 2.619-9.92-.006-1.954-.211-8.496-2.619-10.23zM28.23 24.456c-.349.251-2.35 1.069-12.239 1.069-9.56 0-11.566-.742-11.945-.971-.965-.579-1.984-3.652-2.063-8.376.079-4.713 1.111-8.153 2.066-8.726.38-.229 2.393-.977 11.943-.977 9.881 0 11.887.824 12.239 1.076.857.617 1.773 3.865 1.787 8.613-.014 4.823-.936 7.678-1.787 8.291zm-5.717-9.243-8.998-5.522a.999.999 0 0 0-1.517.857v11.045a1 1 0 0 0 1.516.857l8.998-5.524a1 1 0 0 0 0-1.713zm-8.514 4.609v-7.503l6.063 3.751z"/></svg></svg>